<?xml version="1.0" standalone="no"?>
<!DOCTYPE svg PUBLIC "-//W3C//DTD SVG 20010904//EN"
 "http://www.w3.org/TR/2001/REC-SVG-20010904/DTD/svg10.dtd">
<svg version="1.0" xmlns="http://www.w3.org/2000/svg"
 width="512.000000pt" height="512.000000pt" viewBox="0 0 512.000000 512.000000"
 preserveAspectRatio="xMidYMid meet">
<metadata>
Created by potrace 1.14, written by Peter Selinger 2001-2017
</metadata>
<g transform="translate(0.000000,512.000000) scale(0.100000,-0.100000)"
fill="#000000" stroke="none">
<path d="M2646 4783 c-1 -2 -16 -5 -32 -7 -333 -46 -814 -246 -1179 -490 -63
-42 -237 -167 -245 -176 -3 -3 -30 -25 -60 -50 -346 -281 -597 -625 -740
-1015 -89 -242 -120 -401 -121 -625 l0 -105 -129 -135 -129 -135 30 -30 30
-30 104 110 c58 61 105 108 106 105 1 -3 3 -18 5 -34 19 -165 113 -423 220
-606 113 -193 351 -448 515 -552 l27 -17 -4 -158 c-4 -205 -6 -403 -5 -428 1
-17 8 -20 41 -20 22 0 40 4 40 10 1 5 3 127 6 269 2 143 6 262 8 264 2 2 24
-9 48 -24 121 -77 415 -192 561 -220 12 -2 45 -8 72 -14 137 -27 212 -34 385
-34 331 -1 585 51 876 181 l110 49 -2 -105 c-1 -58 -3 -176 -4 -261 l-3 -155
41 -3 c40 -3 42 -2 43 25 3 80 7 313 8 424 l1 125 47 30 c280 174 529 446 671
737 82 166 156 419 165 563 2 25 7 38 15 36 7 -1 52 -27 101 -58 l89 -56 -5
-482 c-13 -1035 -14 -1009 43 -1134 43 -93 156 -188 249 -208 85 -19 178 3
251 59 73 56 139 165 159 262 23 113 21 83 30 825 1 146 6 519 10 830 4 311 8
734 9 940 l1 375 -33 205 c-18 113 -35 217 -37 231 -3 14 -7 41 -9 60 -3 19
-7 49 -11 67 -3 18 -7 52 -9 74 -6 61 -70 181 -117 221 -50 43 -111 61 -158
48 -75 -22 -147 -97 -181 -186 -10 -26 -111 -475 -156 -692 -3 -15 -7 -31 -10
-35 -6 -9 -11 -272 -18 -951 -3 -220 -6 -401 -8 -403 -3 -2 -48 23 -101 57
l-96 60 0 52 c2 196 -58 463 -147 655 -144 313 -364 568 -660 765 -167 110
-287 168 -508 243 -186 63 -259 110 -237 153 15 28 79 69 192 124 154 74 225
170 199 267 -25 92 -104 134 -258 135 -51 1 -94 0 -96 -2z"/>
</g>
</svg>
